# xmcd CD database file
#
# Track frame offsets:
#	183
#	18658
#	38440
#	58700
#	81708
#	96813
#	112088
#	132168
#	150378
#
# Disc length: 2198 seconds
#
# Revision: 10
# Processed by: cddbd v1.5.2PL0 Copyright (c) Steve Scherf et al.
# Submitted via: CDex 2.00
#
DISCID=70089409
DTITLE=Deep Purple - Stormbringer [CDP 7 91084 2)
DYEAR=1974
DGENRE=Rock
TTITLE0=Stormbringer
TTITLE1=Love Don't Mean AThing
TTITLE2=Holy Man
TTITLE3=Hold On
TTITLE4=Lady Double Dealer
TTITLE5=You Can't Do It Right
TTITLE6=High Ball Shooter
TTITLE7=The Gypsy
TTITLE8=Soldier Of Fortune
EXTD=YEAR: 1974
EXTT0=
EXTT1=
EXTT2=
EXTT3=
EXTT4=
EXTT5=
EXTT6=
EXTT7=
EXTT8=
PLAYORDER=
